<svg width="456" height="292" viewBox="0 0 456 292" fill="none" xmlns="http://www.w3.org/2000/svg">
<g clip-path="url(#clip0_9476_119932)">
<path d="M291.872 282.969C295.096 281.158 299.234 281.091 302.519 282.794C305.803 284.496 308.131 287.915 308.508 291.596C301.711 291.596 295.015 290.015 291.872 282.969Z" fill="#EBEBEB"/>
<path d="M299.793 276.01C304.342 277.498 309.612 276.555 313.353 273.567C317.095 270.586 319.195 265.66 318.757 260.895C310.13 262.584 302.02 266.279 299.793 276.01Z" fill="#EBEBEB"/>
<path d="M270.202 287.505C270.202 287.505 270.344 287.437 270.626 287.336C270.942 287.229 271.353 287.087 271.864 286.919C272.948 286.569 274.509 286.058 276.427 285.392C280.263 284.066 285.533 282.141 291.213 279.664C294.046 278.419 296.717 277.154 299.107 275.943C301.489 274.711 303.602 273.534 305.332 272.477C307.048 271.394 308.414 270.485 309.282 269.758C310.17 269.058 310.608 268.601 310.635 268.634C310.641 268.641 310.54 268.756 310.325 268.971C310.11 269.18 309.814 269.509 309.363 269.866C308.508 270.626 307.155 271.575 305.453 272.686C303.73 273.776 301.63 274.981 299.248 276.226C296.859 277.457 294.187 278.736 291.347 279.981C285.654 282.457 280.364 284.355 276.501 285.62C274.57 286.26 272.995 286.731 271.905 287.04C271.387 287.188 270.969 287.303 270.646 287.397C270.357 287.478 270.202 287.511 270.202 287.498V287.505Z" fill="#E0E0E0"/>
<path d="M300.601 286.926C300.567 286.973 299.78 286.428 298.42 285.694C297.067 284.961 295.116 284.079 292.855 283.46C290.587 282.841 288.46 282.605 286.926 282.552C285.385 282.491 284.429 282.565 284.422 282.504C284.422 282.478 284.658 282.444 285.088 282.397C285.519 282.343 286.152 282.309 286.926 282.309C288.48 282.303 290.641 282.504 292.942 283.13C295.237 283.763 297.202 284.692 298.534 285.486C299.201 285.883 299.726 286.233 300.076 286.495C300.426 286.758 300.607 286.912 300.594 286.933L300.601 286.926Z" fill="#E0E0E0"/>
<path d="M140.278 256.669C138.642 261.037 139.342 266.205 142.095 269.974C144.847 273.742 149.551 275.99 154.208 275.755C152.916 267.282 149.659 259.24 140.278 256.669Z" fill="#EBEBEB"/>
<path d="M138.952 252.51C139.006 252.496 139.241 253.439 139.726 254.912C140.21 256.386 140.998 258.392 142.115 260.485C143.239 262.571 144.47 264.334 145.433 265.559C146.395 266.784 147.048 267.497 147.001 267.537C146.981 267.551 146.806 267.389 146.489 267.087C146.173 266.784 145.742 266.313 145.238 265.72C144.221 264.529 142.936 262.766 141.805 260.653C140.675 258.54 139.921 256.494 139.49 254.986C139.275 254.233 139.127 253.614 139.046 253.183C138.965 252.752 138.925 252.51 138.952 252.51Z" fill="#E0E0E0"/>
<path d="M5.79041 86.8505C3.25329 93.6139 4.34351 101.622 8.60344 107.457C12.8634 113.292 20.1584 116.771 27.3727 116.414C25.374 103.291 20.3267 90.8345 5.79041 86.8505Z" fill="#EBEBEB"/>
<path d="M3.73112 80.4168C3.73112 80.4168 3.86571 80.7668 4.04742 81.4195C4.22239 82.0723 4.49831 83.0078 4.86844 84.1585C5.60872 86.4534 6.81334 89.5693 8.54962 92.813C10.2926 96.0567 12.2173 98.789 13.7248 100.673C14.4718 101.616 15.1044 102.369 15.5486 102.874C15.9927 103.385 16.2283 103.675 16.2081 103.695C16.1879 103.708 15.9187 103.453 15.4476 102.968C14.9698 102.49 14.3103 101.764 13.5296 100.835C11.9683 98.9775 9.99651 96.2519 8.24005 92.988C6.49031 89.7173 5.31261 86.5611 4.6329 84.2393C4.28969 83.0751 4.04742 82.1262 3.91282 81.4599C3.7715 80.7937 3.7042 80.4303 3.73112 80.4235V80.4168Z" fill="#E0E0E0"/>
<path d="M28.5302 220.806C24.8962 223.734 22.8773 228.539 23.3281 233.182C23.779 237.826 26.6863 242.153 30.8184 244.327C34.0217 236.379 35.3071 227.798 28.537 220.806" fill="#EBEBEB"/>
<path d="M29.4993 216.553C29.5532 216.573 29.2772 217.495 28.9475 219.016C28.6177 220.537 28.2678 222.657 28.1668 225.026C28.0726 227.395 28.2341 229.541 28.4428 231.082C28.6446 232.624 28.8465 233.572 28.786 233.586C28.7658 233.586 28.6918 233.364 28.5774 232.94C28.4629 232.516 28.3284 231.897 28.1938 231.123C27.9246 229.582 27.7159 227.408 27.8169 225.012C27.9178 222.616 28.3082 220.47 28.7052 218.955C28.9004 218.195 29.0888 217.589 29.2369 217.179C29.3849 216.768 29.4791 216.539 29.4993 216.553Z" fill="#E0E0E0"/>
<path d="M345.421 50.6377C349.593 52.7171 354.809 52.5422 358.84 50.1935C362.871 47.8448 365.59 43.3897 365.832 38.7327C357.272 39.15 348.941 41.566 345.421 50.6377Z" fill="#EBEBEB"/>
<path d="M341.148 51.526C341.141 51.4654 342.096 51.3376 343.617 51.0011C345.138 50.6713 347.211 50.0926 349.405 49.1975C351.599 48.2957 353.476 47.2459 354.796 46.4181C356.115 45.5904 356.888 45.0116 356.922 45.0587C356.936 45.0789 356.761 45.2404 356.417 45.5231C356.081 45.8057 355.576 46.1826 354.93 46.6267C353.638 47.5151 351.754 48.612 349.54 49.5273C347.319 50.4358 345.212 50.9809 343.664 51.2501C342.891 51.3847 342.265 51.4722 341.827 51.5058C341.39 51.5462 341.148 51.5529 341.148 51.5327V51.526Z" fill="#E0E0E0"/>
<path d="M327.977 49.4128C333.987 48.1207 339.223 43.6589 341.444 37.9252C343.664 32.1914 342.803 25.3675 339.23 20.3605C330.75 27.8238 324.141 37.1714 327.977 49.4128Z" fill="#EBEBEB"/>
<path d="M324.31 53.841C324.31 53.841 324.498 53.5786 324.875 53.1479C325.259 52.7239 325.804 52.0913 326.45 51.2972C327.749 49.709 329.424 47.4141 330.952 44.6818C332.473 41.9428 333.543 39.3115 334.209 37.3666C334.546 36.3975 334.795 35.6034 334.956 35.0516C335.124 34.4997 335.225 34.1969 335.246 34.2036C335.266 34.2036 335.212 34.5199 335.084 35.0852C334.963 35.6505 334.748 36.4581 334.445 37.4406C333.839 39.4124 332.789 42.0842 331.262 44.8434C329.72 47.6025 328.004 49.8974 326.645 51.452C325.965 52.2326 325.393 52.8383 324.976 53.2421C324.565 53.6459 324.33 53.8612 324.31 53.841Z" fill="#E0E0E0"/>
<path d="M191.182 279.947C192.454 282.451 195.031 284.241 197.824 284.557C200.617 284.873 203.531 283.696 205.321 281.535C201.041 278.655 196.141 276.825 191.182 279.94" fill="#EBEBEB"/>
<path d="M188.799 278.843C188.853 278.743 190.879 279.92 193.645 280.62C196.404 281.34 198.746 281.28 198.746 281.387C198.746 281.428 198.167 281.502 197.218 281.475C196.269 281.455 194.964 281.313 193.557 280.957C192.157 280.593 190.939 280.088 190.098 279.658C189.257 279.22 188.779 278.884 188.799 278.843Z" fill="#E0E0E0"/>
<path d="M85.5663 38.3222C87.2959 40.5363 90.1762 41.7948 92.9758 41.5592C95.7754 41.3237 98.4067 39.6143 99.7459 37.1445C94.988 35.1525 89.833 34.2978 85.5663 38.3155" fill="#EBEBEB"/>
<path d="M83.0158 37.7031C83.0494 37.5954 85.2635 38.3626 88.1102 38.5106C90.9569 38.6856 93.245 38.1674 93.2652 38.2818C93.2719 38.3222 92.7201 38.5039 91.7846 38.6654C90.8492 38.8269 89.5369 38.9413 88.09 38.8606C86.6431 38.7798 85.351 38.5174 84.4425 38.2549C83.534 37.9924 82.9956 37.7502 83.0158 37.7098V37.7031Z" fill="#E0E0E0"/>
<path d="M415.242 59.0296C419.737 60.2679 424.818 59.1037 428.324 56.0282C431.824 52.9527 433.641 48.0601 432.995 43.4503C424.677 45.4961 416.965 49.4599 415.249 59.0364" fill="#EBEBEB"/>
<path d="M411.217 60.7188C411.197 60.665 412.112 60.3487 413.539 59.7295C414.966 59.1104 416.891 58.148 418.869 56.8492C420.848 55.5436 422.49 54.1573 423.627 53.0873C424.758 52.024 425.41 51.3106 425.451 51.3443C425.471 51.3577 425.323 51.5529 425.047 51.8894C424.771 52.2326 424.347 52.7037 423.795 53.2622C422.698 54.3794 421.063 55.8195 419.058 57.1386C417.052 58.4509 415.087 59.393 413.627 59.9516C412.893 60.2343 412.294 60.4362 411.877 60.5573C411.453 60.6784 411.217 60.7323 411.211 60.7121L411.217 60.7188Z" fill="#E0E0E0"/>
<path d="M431.164 264.139C439.065 262.315 445.882 256.319 448.695 248.708C451.509 241.103 450.237 232.112 445.418 225.584C434.381 235.605 425.861 248.062 431.164 264.132" fill="#EBEBEB"/>
<path d="M426.413 270.061C426.413 270.061 426.662 269.718 427.16 269.146C427.665 268.581 428.372 267.739 429.213 266.683C430.061 265.626 431.016 264.327 432.026 262.847C433.015 261.36 434.052 259.677 435.034 257.86C436.003 256.036 436.831 254.246 437.524 252.597C438.204 250.942 438.756 249.428 439.166 248.136C439.583 246.844 439.893 245.794 440.088 245.06C440.29 244.327 440.411 243.923 440.431 243.93C440.452 243.93 440.377 244.347 440.216 245.094C440.061 245.841 439.785 246.904 439.402 248.21C439.018 249.515 438.486 251.05 437.82 252.725C437.14 254.394 436.313 256.198 435.337 258.028C434.348 259.859 433.298 261.541 432.288 263.029C431.259 264.509 430.276 265.801 429.401 266.838C428.526 267.881 427.793 268.702 427.254 269.24C426.723 269.785 426.42 270.075 426.407 270.061H426.413Z" fill="#E0E0E0"/>
<path d="M339.808 179.29C335.555 155.568 315.191 134.854 291.172 132.895C278.083 131.832 264.926 135.957 251.891 134.383C240.955 133.064 230.571 127.586 223.303 119.308C212.549 107.06 208.888 89.6366 197.494 77.9739C181.787 61.9033 154.37 61.6475 135.264 73.4717C116.152 85.2959 104.597 106.636 99.307 128.474L99.0984 135.116C97.9476 157.769 103.903 184.102 117.053 204.291C130.372 224.75 139.127 233.196 163.394 247.907C184.001 260.397 224.353 265.889 248.445 266.467C272.538 267.046 297.283 259.866 315.406 243.977C333.522 228.088 344.068 202.999 339.822 179.284L339.808 179.29Z" fill="#E56B70"/>
<g opacity="0.8">
<path d="M339.808 179.29C335.555 155.568 315.191 134.854 291.172 132.895C278.083 131.832 264.926 135.957 251.891 134.383C240.955 133.064 230.571 127.586 223.303 119.308C212.549 107.06 208.888 89.6366 197.494 77.9739C181.787 61.9033 154.37 61.6475 135.264 73.4717C116.152 85.2959 104.597 106.636 99.307 128.474L99.0984 135.116C97.9476 157.769 103.903 184.102 117.053 204.291C130.372 224.75 139.127 233.196 163.394 247.907C184.001 260.397 224.353 265.889 248.445 266.467C272.538 267.046 297.283 259.866 315.406 243.977C333.522 228.088 344.068 202.999 339.822 179.284L339.808 179.29Z" fill="white"/>
</g>
<path d="M363.425 263.988C364.346 257.643 359.949 251.753 353.604 250.832C347.259 249.911 341.369 254.308 340.448 260.652C339.527 266.997 343.923 272.887 350.268 273.809C356.613 274.73 362.503 270.333 363.425 263.988Z" fill="#E56B70"/>
<path opacity="0.8" d="M363.425 263.988C364.346 257.643 359.949 251.753 353.604 250.832C347.259 249.911 341.369 254.308 340.448 260.652C339.527 266.997 343.923 272.887 350.268 273.809C356.613 274.73 362.503 270.333 363.425 263.988Z" fill="white"/>
<path d="M270.451 172.998C270.673 196.168 265.619 213.881 255.296 226.143C244.966 238.404 230.826 244.616 212.878 244.784C194.843 244.959 180.508 239.017 169.868 226.957C159.229 214.904 153.798 197.292 153.569 174.115L153.179 133.36C152.957 110.27 158.011 92.5572 168.334 80.2148C178.657 67.8792 192.837 61.6205 210.873 61.4455C228.821 61.2706 243.122 67.2533 253.761 79.3938C264.401 91.5343 269.839 109.146 270.061 132.236L270.451 172.991V172.998ZM240.275 127.962C240.134 113.372 237.583 102.591 232.623 95.6327C227.664 88.6674 220.49 85.2352 211.108 85.3227C201.727 85.4102 194.641 88.9837 189.856 96.0432C185.071 103.103 182.742 113.924 182.884 128.514L183.362 178.032C183.503 192.709 186.074 203.544 191.081 210.55C196.081 217.556 203.275 221.008 212.663 220.92C222.044 220.833 229.11 217.259 233.855 210.2C238.599 203.14 240.901 192.238 240.76 177.48L240.282 127.962H240.275Z" fill="#E56B70"/>
<g opacity="0.4">
<path d="M270.451 172.998C270.673 196.168 265.619 213.881 255.296 226.143C244.966 238.404 230.826 244.616 212.878 244.784C194.843 244.959 180.508 239.017 169.868 226.957C159.229 214.904 153.798 197.292 153.569 174.115L153.179 133.36C152.957 110.27 158.011 92.5572 168.334 80.2148C178.657 67.8792 192.837 61.6205 210.873 61.4455C228.821 61.2706 243.122 67.2533 253.761 79.3938C264.401 91.5343 269.839 109.146 270.061 132.236L270.451 172.991V172.998ZM240.275 127.962C240.134 113.372 237.583 102.591 232.623 95.6327C227.664 88.6674 220.49 85.2352 211.108 85.3227C201.727 85.4102 194.641 88.9837 189.856 96.0432C185.071 103.103 182.742 113.924 182.884 128.514L183.362 178.032C183.503 192.709 186.074 203.544 191.081 210.55C196.081 217.556 203.275 221.008 212.663 220.92C222.044 220.833 229.11 217.259 233.855 210.2C238.599 203.14 240.901 192.238 240.76 177.48L240.282 127.962H240.275Z" fill="black"/>
</g>
<path d="M287.585 172.836C287.807 196.007 282.753 213.72 272.43 225.981C262.1 238.243 247.96 244.454 230.012 244.623C211.976 244.798 197.642 238.855 187.002 226.796C176.363 214.743 170.932 197.131 170.703 173.954L170.313 133.198C170.091 110.108 175.145 92.3957 185.468 80.0534C195.791 67.7177 209.971 61.4591 228.007 61.2841C245.955 61.1091 260.256 67.0919 270.895 79.2323C281.535 91.3728 286.973 108.985 287.195 132.074L287.585 172.83V172.836ZM257.409 127.801C257.268 113.211 254.717 102.43 249.757 95.4712C244.797 88.5059 237.624 85.0738 228.242 85.1613C218.861 85.2487 211.775 88.8222 206.99 95.8818C202.205 102.941 199.876 113.763 200.018 128.353L200.496 177.87C200.637 192.548 203.208 203.383 208.215 210.388C213.215 217.394 220.409 220.846 229.797 220.759C239.178 220.671 246.244 217.098 250.989 210.038C255.733 202.979 258.035 192.077 257.894 177.318L257.416 127.801H257.409Z" fill="#E56B70"/>
<path d="M108.87 181.444L131.368 182.426L130.324 206.27L107.827 205.287L106.097 244.905L76.5066 243.613L78.2362 203.995L1.81313 200.657L1.8737 182.5L83.3037 65.5373L113.87 66.8698L108.87 181.444ZM31.4711 178.065L79.2793 180.152L82.4355 107.888L81.7155 107.612L79.0437 112.76L31.4711 178.065Z" fill="#E56B70"/>
<g opacity="0.4">
<path d="M108.87 181.444L131.368 182.426L130.324 206.27L107.827 205.287L106.097 244.905L76.5066 243.613L78.2362 203.995L1.81313 200.657L1.8737 182.5L83.3037 65.5373L113.87 66.8698L108.87 181.444ZM31.4711 178.065L79.2793 180.152L82.4355 107.888L81.7155 107.612L79.0437 112.76L31.4711 178.065Z" fill="black"/>
</g>
<path d="M127.686 182.265L150.184 183.247L149.141 207.091L126.643 206.108L124.914 245.726L95.323 244.434L97.0526 204.816L20.6295 201.478L20.6901 183.321L102.12 66.3584L132.687 67.6909L127.686 182.265ZM50.2875 178.886L98.0957 180.973L101.252 108.709L100.532 108.433L97.8601 113.581L50.2943 178.886H50.2875Z" fill="#E56B70"/>
<path d="M401.116 181.72L423.526 179.526L425.848 203.275L403.438 205.469L407.301 244.932L377.824 247.813L373.962 208.349L297.828 215.792L295.331 197.811L359.499 70.5577L389.951 67.5764L401.116 181.713V181.72ZM324.013 189.264L371.64 184.607L364.601 112.619L363.847 112.45L361.922 117.928L324.013 189.27V189.264Z" fill="#E56B70"/>
<g opacity="0.4">
<path d="M401.116 181.72L423.526 179.526L425.848 203.275L403.438 205.469L407.301 244.932L377.824 247.813L373.962 208.349L297.828 215.792L295.331 197.811L359.499 70.5577L389.951 67.5764L401.116 181.713V181.72ZM324.013 189.264L371.64 184.607L364.601 112.619L363.847 112.45L361.922 117.928L324.013 189.27V189.264Z" fill="black"/>
</g>
<path d="M419.859 179.889L442.269 177.695L444.59 201.445L422.18 203.639L426.043 243.102L396.567 245.982L392.704 206.519L316.57 213.962L314.074 195.98L378.242 68.7272L408.694 65.7527L419.859 179.889ZM342.756 187.433L390.382 182.776L383.343 110.788L382.589 110.613L380.664 116.091L342.756 187.433Z" fill="#E56B70"/>
<path d="M173.099 133.353L177.81 132.619L206.997 123.205L224.07 118.272C228.061 116.892 233.229 116.414 238.842 119.274C246.904 123.386 269.16 144.094 269.16 144.094L253.136 160.615L260.687 194.049C252.241 218.06 235.706 220.813 235.706 220.813C235.706 220.813 224.844 221.789 212.017 216.896C196.66 211.041 180.542 197.319 178.523 191.417C177.312 187.877 176.316 180.434 175.515 172.029L151.207 162.123L144.619 128.494L173.106 133.353H173.099Z" fill="#3EBFB6"/>
<path d="M208.605 192.871C208.605 192.871 208.679 192.952 208.841 193.08C209.009 193.201 209.238 193.403 209.568 193.611C210.214 194.055 211.196 194.634 212.488 195.179C215.046 196.283 219.036 197.111 223.269 196.195C227.502 195.267 230.787 192.851 232.651 190.778C233.6 189.742 234.252 188.806 234.649 188.133C234.865 187.803 234.986 187.527 235.087 187.346C235.181 187.164 235.228 187.063 235.215 187.056C235.188 187.043 234.966 187.413 234.535 188.059C234.104 188.705 233.425 189.607 232.469 190.61C230.585 192.608 227.341 194.944 223.195 195.852C219.05 196.754 215.126 195.98 212.583 194.95C211.297 194.439 210.301 193.901 209.642 193.497C208.982 193.093 208.626 192.844 208.605 192.871Z" fill="#263138"/>
<path d="M217.839 124.591C217.839 124.591 217.818 124.645 217.785 124.752C217.751 124.88 217.711 125.035 217.664 125.23C217.563 125.647 217.421 126.273 217.253 127.074C216.93 128.683 216.445 131.018 216.291 133.959C216.23 135.426 216.257 137.054 216.567 138.764C216.876 140.473 217.482 142.263 218.485 143.946C219.494 145.628 220.894 147.162 222.475 148.569C224.057 149.982 225.807 151.295 227.59 152.647C231.379 155.501 235.073 158.071 238.378 160.413C241.682 162.749 244.589 164.855 246.918 166.618L246.992 166.672L247.066 166.618C249.145 164.936 250.72 163.482 251.743 162.412C252.248 161.874 252.611 161.436 252.84 161.12C252.954 160.965 253.022 160.837 253.076 160.75C253.123 160.662 253.15 160.622 253.143 160.615C253.129 160.608 253.015 160.777 252.786 161.073C252.544 161.369 252.174 161.793 251.656 162.311C250.619 163.347 249.017 164.767 246.925 166.423H247.073C244.764 164.633 241.87 162.5 238.573 160.144C235.282 157.789 231.594 155.205 227.812 152.358C226.035 151.005 224.286 149.7 222.718 148.307C221.15 146.913 219.77 145.413 218.774 143.771C217.785 142.129 217.179 140.379 216.869 138.703C216.553 137.021 216.513 135.412 216.553 133.959C216.674 131.038 217.118 128.703 217.401 127.088C217.549 126.307 217.664 125.688 217.751 125.23C217.785 125.035 217.812 124.874 217.839 124.746C217.859 124.638 217.859 124.577 217.859 124.577L217.839 124.591Z" fill="#263138"/>
<path d="M91.0972 139.74C84.2598 133.885 81.9515 123.339 85.7067 115.156C88.9167 114.826 92.1268 114.496 95.3369 114.16C90.4511 111.596 87.5035 105.761 88.338 100.303C93.5267 105.902 102.511 107.558 109.355 104.173C113.85 101.952 117.498 97.8132 122.438 96.9451C126.92 96.1577 131.328 98.2574 135.621 99.785C139.908 101.313 145.11 102.154 148.663 99.3072C151.483 97.0527 152.351 93.0956 152.17 89.4952C151.988 85.8881 150.945 82.3751 150.723 78.7747C150.285 71.7085 153.347 64.5884 158.523 59.7834C160.144 54.6553 164.027 50.2339 169.001 48.1342C175.017 45.5903 182.373 46.5527 187.534 50.5502C189.641 52.1788 191.418 54.2852 193.807 55.4629C196.505 56.7954 199.641 56.7954 202.562 57.5155C205.483 58.2355 208.545 60.167 208.861 63.1617L210.039 69.2925C210.234 69.73 210.443 70.1674 210.685 70.5846C213.168 74.9388 218.242 77.7989 219.346 82.6847C219.965 85.4237 219.198 88.3915 220.12 91.0431C221.338 94.5358 225.107 96.5009 226.863 99.7514C229.272 104.22 227.637 112.04 223.781 115.344C219.925 118.649 211.977 122.141 207.01 123.198C205.664 118.036 204.473 112.518 203.323 106.871C201.297 108.816 199.177 110.667 197.064 112.504C191.532 117.309 185.886 122.188 182.05 128.427C174.761 140.285 174.64 156.005 165.461 166.47C163.664 168.523 161.477 170.353 158.866 171.141C156.255 171.935 153.159 171.511 151.228 169.586C148.946 167.311 148.65 163.475 146.133 161.477C142.782 158.818 137.882 160.938 134.275 163.247C131.664 164.916 129.06 166.679 126.099 167.594C123.138 168.509 119.699 168.449 117.188 166.645C114.672 164.841 113.568 160.992 115.385 158.482C116.112 157.479 117.195 156.779 117.915 155.77C118.635 154.76 118.844 153.165 117.861 152.418C116.771 151.591 115.25 152.391 114.066 153.085C108.312 156.47 101.024 157.116 94.7649 154.787C88.5063 152.459 83.4118 147.21 81.265 140.89C84.5694 141.402 88.015 140.998 91.1107 139.74H91.0972Z" fill="#263138"/>
<path d="M97.0934 86.9245C97.0934 86.9245 96.7704 87.1465 96.2253 87.6715C95.6936 88.1964 94.9062 89.0107 94.2467 90.2893C93.9237 90.9287 93.641 91.6891 93.5064 92.5573C93.3853 93.4187 93.4324 94.4147 93.8362 95.3703C94.2265 96.3192 94.9062 97.2479 95.9022 97.8805C96.4002 98.1901 96.979 98.4256 97.5981 98.4929C98.224 98.5669 98.8768 98.466 99.4825 98.217C101.979 97.2008 103.231 94.3137 105.936 93.0283C108.568 91.6353 111.932 91.5411 115.169 92.2813C118.44 93.0283 121.549 94.7781 124.739 96.5682C127.916 98.3448 131.307 100.276 135.204 100.943C137.129 101.292 139.114 101.319 140.992 100.902C141.927 100.68 142.829 100.35 143.67 99.9061C144.504 99.4552 145.258 98.8765 145.931 98.2304C147.264 96.9181 148.199 95.303 148.832 93.6407C149.471 91.9785 149.821 90.2624 150.016 88.58C150.373 85.2016 150.09 81.9916 150.057 79.0035C149.996 76.0223 150.171 73.216 150.871 70.7798C151.201 69.5617 151.651 68.4311 152.156 67.4082C152.654 66.3785 153.206 65.4566 153.785 64.6288C154.936 62.9733 156.154 61.7148 157.23 60.7928C158.3 59.8574 159.236 59.2652 159.862 58.8547C160.171 58.673 160.414 58.5249 160.595 58.424C160.757 58.323 160.844 58.2692 160.838 58.2625C160.838 58.2625 160.743 58.3028 160.575 58.3903C160.393 58.4913 160.144 58.6259 159.821 58.7941C159.182 59.1912 158.233 59.7632 157.143 60.6919C156.046 61.6071 154.808 62.8589 153.63 64.5211C153.038 65.3489 152.466 66.2776 151.961 67.314C151.443 68.3436 150.985 69.4809 150.635 70.7125C149.908 73.1823 149.72 76.0088 149.767 79.0035C149.787 81.9983 150.057 85.2084 149.693 88.5396C149.498 90.2018 149.141 91.891 148.515 93.5196C147.89 95.1415 146.981 96.7162 145.689 97.9814C145.036 98.6006 144.316 99.1659 143.508 99.5966C142.701 100.021 141.826 100.344 140.918 100.559C139.094 100.963 137.162 100.943 135.271 100.593C131.449 99.9398 128.097 98.042 124.914 96.2653C121.724 94.482 118.588 92.7188 115.25 91.965C113.595 91.6016 111.926 91.4199 110.317 91.5478C109.51 91.5882 108.729 91.7497 107.969 91.9314C107.222 92.1602 106.481 92.4025 105.815 92.7726C103.022 94.1387 101.771 97.0393 99.4017 97.9882C98.2509 98.4862 96.9723 98.2977 96.0301 97.6921C95.0745 97.0998 94.4082 96.2115 94.0246 95.2963C93.6276 94.381 93.5738 93.4254 93.6814 92.5774C93.8026 91.7295 94.065 90.9825 94.3813 90.3499C95.0206 89.0847 95.7811 88.2569 96.2925 87.7186C96.555 87.4494 96.7636 87.2542 96.905 87.1264C97.0463 86.9985 97.1203 86.9312 97.1136 86.9245H97.0934Z" fill="#263138"/>
<path d="M207.105 125.769C207.105 125.769 207.132 125.668 207.158 125.466C207.192 125.264 207.219 124.961 207.34 124.584C207.542 123.824 208.006 122.72 208.996 121.583C209.998 120.466 211.492 119.328 213.457 118.48C215.409 117.592 217.825 117.154 220.483 116.65C223.115 116.132 226.136 115.586 228.842 113.783C231.5 111.986 233.627 108.931 234.172 105.33C234.723 101.75 233.566 97.7257 230.82 94.8655C228.034 92.0054 224.097 90.5922 220.88 88.0752C220.086 87.4292 219.366 86.7158 218.761 85.9217C218.195 85.1007 217.731 84.2124 217.468 83.2567C216.937 81.3455 216.977 79.3467 216.795 77.4018C216.708 76.426 216.56 75.457 216.257 74.5282C215.961 73.5995 215.47 72.7381 214.837 72.0113C213.532 70.5779 211.735 69.8242 210.025 69.3329C208.296 68.8282 206.58 68.5186 204.951 68.0677C203.329 67.6168 201.802 67.0111 200.523 66.0891C199.224 65.2008 198.147 64.0971 197.198 62.98C196.25 61.8561 195.442 60.6986 194.695 59.5747C193.208 57.3203 191.936 55.2206 190.583 53.5382C189.251 51.8423 187.898 50.5434 186.66 49.6618C185.421 48.7735 184.324 48.3024 183.564 48.0669C182.803 47.8246 182.386 47.7708 182.386 47.7708C182.386 47.7977 182.797 47.8717 183.544 48.1342C184.291 48.3899 185.374 48.8744 186.586 49.7695C187.804 50.6578 189.129 51.9567 190.435 53.6526C191.767 55.335 193.019 57.4347 194.493 59.7026C195.24 60.8332 196.048 62.0042 196.997 63.1482C197.945 64.2856 199.036 65.4027 200.361 66.3247C201.667 67.2736 203.242 67.9062 204.877 68.3638C206.519 68.8214 208.235 69.1377 209.945 69.6425C211.64 70.1337 213.363 70.874 214.602 72.2334C215.194 72.9266 215.665 73.7341 215.947 74.6292C216.237 75.5175 216.378 76.4664 216.466 77.4288C216.647 79.3467 216.594 81.3657 217.145 83.351C217.415 84.3402 217.899 85.2689 218.491 86.1236C219.117 86.9581 219.864 87.6849 220.672 88.3444C222.314 89.6298 224.117 90.6124 225.847 91.6353C227.57 92.6515 229.239 93.7282 230.585 95.1011C233.256 97.8737 234.394 101.797 233.869 105.276C233.351 108.783 231.278 111.777 228.694 113.541C226.062 115.311 223.074 115.876 220.45 116.407C217.805 116.919 215.362 117.377 213.39 118.299C211.412 119.173 209.904 120.344 208.901 121.488C207.912 122.653 207.461 123.79 207.28 124.564C207.172 124.948 207.152 125.257 207.132 125.459C207.111 125.661 207.111 125.769 207.111 125.769H207.105Z" fill="#263138"/>
<path d="M197.185 65.3556C199.796 65.2883 202.024 67.2332 202.313 69.8242L207.757 126.495C208.7 134.463 198.275 151.55 189.735 152.492C181.108 153.441 180.266 149.262 179.149 141.711C177.278 129.093 176.652 124.349 176.659 124.423C176.659 124.423 165.555 124.052 161.436 110.169C159.391 103.264 158.22 91.6555 157.567 82.1261C156.981 73.5457 161.241 62.3676 169.835 62.1523L197.185 65.3556Z" fill="#FFFAF8"/>
<path d="M161.322 89.6433C161.416 90.6056 162.305 91.3257 163.314 91.2449C164.324 91.1642 165.064 90.323 164.97 89.3606C164.875 88.3983 163.987 87.6782 162.978 87.7589C161.968 87.8397 161.228 88.6809 161.315 89.65L161.322 89.6433Z" fill="#263138"/>
<path d="M160.548 85.9755C160.757 86.2313 162.217 85.3026 164.182 85.4439C166.154 85.5583 167.527 86.6687 167.756 86.4466C167.87 86.3457 167.668 85.9015 167.069 85.3968C166.484 84.8988 165.454 84.3806 164.229 84.2998C163.005 84.2191 161.941 84.6027 161.315 85.0199C160.676 85.4439 160.441 85.8611 160.548 85.9755Z" fill="#263138"/>
<path d="M178.638 90.6662C178.873 90.9017 180.233 89.8317 182.205 89.7779C184.176 89.6971 185.65 90.6729 185.859 90.4239C185.96 90.3162 185.717 89.8855 185.071 89.4481C184.439 89.0107 183.369 88.5934 182.137 88.6338C180.906 88.6742 179.889 89.1587 179.304 89.6365C178.712 90.1211 178.517 90.5585 178.631 90.6595L178.638 90.6662Z" fill="#263138"/>
<path d="M174.963 101.091C174.963 100.976 173.712 100.929 171.713 100.936C171.208 100.949 170.724 100.916 170.589 100.586C170.421 100.243 170.562 99.6773 170.73 99.0582C171.04 97.7863 171.363 96.4538 171.706 95.0607C173.045 89.3741 173.94 84.7238 173.712 84.67C173.483 84.6161 172.211 89.1856 170.872 94.8723C170.555 96.2721 170.246 97.6113 169.963 98.8832C169.849 99.4754 169.606 100.162 169.963 100.875C170.145 101.232 170.549 101.454 170.878 101.494C171.208 101.548 171.491 101.521 171.74 101.494C173.738 101.34 174.97 101.185 174.963 101.077V101.091Z" fill="#263138"/>
<path d="M176.659 124.423C176.659 124.423 186.283 123.783 194.984 116.858C194.984 116.858 191.478 127.236 177.11 127.781L176.659 124.423Z" fill="#DBDBDB"/>
<path d="M178.362 87.2946C178.671 87.7724 180.535 87.0792 182.851 86.8168C185.166 86.5139 187.137 86.7495 187.326 86.2111C187.407 85.9554 186.976 85.5381 186.121 85.2017C185.273 84.8652 184.001 84.6565 182.608 84.8248C181.222 84.993 180.031 85.4978 179.29 86.0227C178.543 86.5476 178.22 87.0591 178.362 87.2879V87.2946Z" fill="#263138"/>
<path d="M160.844 83.3308C161.167 83.7951 162.547 83.3981 164.182 83.4654C165.818 83.4654 167.184 83.923 167.527 83.4654C167.675 83.2433 167.48 82.7857 166.901 82.328C166.329 81.8771 165.346 81.4801 164.223 81.4532C163.099 81.433 162.103 81.7897 161.517 82.2204C160.918 82.6511 160.703 83.1019 160.844 83.3308Z" fill="#263138"/>
<path d="M174.418 108.985C174.566 109.038 174.822 108.608 175.293 108.015C175.764 107.423 176.484 106.676 177.453 106.124C178.422 105.573 179.432 105.33 180.179 105.229C180.926 105.122 181.431 105.122 181.457 104.967C181.491 104.832 181.02 104.57 180.165 104.482C179.324 104.395 178.093 104.543 176.928 105.209C175.771 105.869 175.01 106.851 174.654 107.625C174.29 108.399 174.284 108.944 174.411 108.985H174.418Z" fill="#263138"/>
<path d="M208.518 122.599C203.847 121.67 200.24 117.652 198.632 113.164C197.023 108.682 197.104 103.776 197.535 99.0313C197.589 98.4189 197.69 97.7392 198.174 97.3623C198.881 96.8172 199.897 97.2614 200.657 97.7257C203.605 99.5225 206.432 101.508 209.123 103.675C211.627 105.694 214.103 108.016 215.066 111.078C216.54 115.782 213.424 121.401 208.652 122.646" fill="#263138"/>
<path d="M101.003 121.502L123.064 86.0496L129.154 73.5726C129.154 73.5726 131.099 70.9951 133.118 68.7945C136.436 65.1806 139.706 67.9869 139.706 67.9869C139.706 67.9869 140.184 66.6074 141.92 66.6208C143.993 66.641 144.969 68.1754 144.969 68.1754C144.969 68.1754 145.871 67.1726 148.374 67.0179C148.913 66.9842 149.451 67.1928 149.962 67.5293C150.783 66.8092 152.284 65.7661 153.738 66.2978C154.868 66.7083 161.726 71.9239 163.415 74.5485C164.25 75.8473 162.702 77.5297 160.616 76.7424C159.7 76.3924 158.778 76.1165 158.112 75.7262C156.995 75.0734 156.416 74.36 156.416 74.36C156.416 74.36 158.146 77.3884 156.416 77.9201C155.696 78.1421 154.168 77.9806 153.172 77.1327C152.513 76.5741 151.752 75.854 151.032 75.1541C151.059 75.1945 151.093 75.2349 151.12 75.2753C152.076 76.6885 149.585 78.7815 148.374 77.9335C147.768 77.5095 147.237 77.0788 146.766 76.6616C143.966 78.694 147.856 81.2984 149.498 81.1638C152.042 80.9552 155.016 80.9686 157.089 81.1369C158.516 81.258 159.795 81.5945 160.562 82.3886C161.49 83.3442 160.515 85.3497 159.202 85.5516C156.786 85.9217 153.704 86.4601 150.501 87.2879C146.725 88.257 136.86 91.467 136.86 91.467L135.897 92.2477L122.478 124.961L145.447 129.827L150.575 158.926L109.119 147.681C99.7786 142.822 95.3572 130.392 101.01 121.509L101.003 121.502Z" fill="#FFFAF8" stroke="#263138" stroke-width="0.336488" stroke-miterlimit="10"/>
<path d="M136.859 91.4603C136.859 91.4603 137.041 91.4266 137.384 91.3324C137.755 91.2247 138.253 91.0834 138.872 90.9084C140.197 90.5181 142.048 89.9663 144.323 89.2866C145.474 88.9366 146.732 88.5598 148.085 88.1492C149.437 87.732 150.878 87.3013 152.419 86.911C153.953 86.5206 155.575 86.1303 157.278 85.9082C158.105 85.7804 159.041 85.8611 159.916 85.4304C160.131 85.3228 160.34 85.1882 160.508 84.9863C160.589 84.8853 160.663 84.7776 160.71 84.6229L160.764 84.2662C160.817 83.8018 160.824 83.3173 160.676 82.8395C160.521 82.3549 160.144 81.9579 159.72 81.7358C159.303 81.5003 158.859 81.3657 158.435 81.2243C157.553 80.9417 156.645 80.8946 155.777 80.8946C154.027 80.9148 152.378 81.157 150.804 81.0965C150.016 81.0695 149.249 81.0023 148.522 80.8744C147.789 80.7398 147.089 80.5514 146.402 80.3764C145.043 80.013 143.704 79.7505 142.479 79.8784C141.261 79.9793 140.204 80.3226 139.316 80.686C138.427 81.0494 137.701 81.4397 137.108 81.7694C136.523 82.0992 136.079 82.3751 135.776 82.5568C135.48 82.7453 135.325 82.8529 135.332 82.8597C135.339 82.8664 135.507 82.7856 135.816 82.6174C136.16 82.4357 136.61 82.1934 137.176 81.8839C137.775 81.5743 138.502 81.2041 139.39 80.8609C140.271 80.5177 141.315 80.2014 142.499 80.1207C143.683 80.013 144.969 80.2822 146.328 80.6523C147.008 80.834 147.715 81.0359 148.468 81.1772C149.222 81.3186 149.996 81.3926 150.797 81.4195C152.405 81.4935 154.074 81.258 155.784 81.2378C156.638 81.2378 157.513 81.2916 158.334 81.5541C159.155 81.8233 160.097 82.1127 160.346 82.9471C160.474 83.3442 160.467 83.7884 160.42 84.2258L160.38 84.5354C160.36 84.6027 160.306 84.6902 160.252 84.7575C160.124 84.9055 159.956 85.0199 159.774 85.1074C159.021 85.4843 158.119 85.4237 157.251 85.5516C155.521 85.7804 153.899 86.1842 152.358 86.5812C150.817 86.985 149.37 87.4224 148.024 87.8531C146.678 88.2771 145.426 88.6674 144.276 89.0308C142.014 89.7509 140.171 90.3431 138.851 90.7604C138.239 90.9623 137.748 91.1238 137.384 91.2449C137.048 91.3593 136.873 91.4266 136.88 91.4401L136.859 91.4603Z" fill="#263138"/>
<path d="M153.866 66.3515C153.832 66.4054 154.902 67.0312 156.49 68.2291C157.284 68.8281 158.193 69.5886 159.128 70.5173C160.07 71.4325 161.06 72.5093 162.231 73.512C162.803 73.9965 163.341 74.5215 163.476 75.1742C163.543 75.4905 163.516 75.8203 163.361 76.076C163.213 76.3385 162.951 76.5135 162.668 76.6144C162.083 76.8096 161.457 76.7557 160.891 76.6481C160.326 76.5404 159.808 76.3856 159.35 76.2039C157.513 75.4569 156.665 74.4811 156.618 74.5484C156.605 74.5618 156.8 74.8041 157.224 75.1742C157.648 75.5444 158.321 76.0289 159.256 76.4327C159.72 76.6346 160.252 76.8096 160.838 76.9307C161.416 77.0518 162.089 77.1326 162.776 76.9172C163.112 76.8096 163.455 76.5875 163.657 76.2443C163.866 75.9078 163.9 75.4838 163.826 75.1002C163.671 74.3061 163.045 73.7273 162.473 73.2428C161.322 72.2535 160.333 71.197 159.37 70.2817C158.408 69.3597 157.473 68.6127 156.652 68.0272C155.837 67.4418 155.137 67.0245 154.653 66.7419C154.162 66.4659 153.886 66.3246 153.879 66.3448L153.866 66.3515Z" fill="#263138"/>
<path d="M145.447 69.1377C145.447 69.1377 145.709 69.481 146.227 70.0664C146.786 70.6856 147.533 71.5066 148.441 72.5026C149.397 73.539 150.521 74.7436 151.759 76.0828C152.398 76.7693 153.159 77.4086 154.088 77.8595C154.552 78.0816 155.07 78.2498 155.629 78.2431C156.181 78.2296 156.759 78.0681 157.177 77.624C157.399 77.3951 157.506 77.0856 157.547 76.7827C157.574 76.4799 157.526 76.1905 157.459 75.9146C157.304 75.3695 157.049 74.8917 156.746 74.4408L156.732 74.4206C155.548 73.1621 154.444 71.9777 153.448 70.8875C152.439 69.8174 151.47 68.9426 150.682 68.1956C150.292 67.8254 149.929 67.4755 149.532 67.2669C149.121 67.0583 148.737 67.065 148.441 67.0313C147.849 66.991 147.499 67.0448 147.526 67.1054C147.513 67.0784 147.842 67.0717 148.428 67.1457C148.711 67.1996 149.101 67.213 149.444 67.4149C149.801 67.6168 150.137 67.9668 150.528 68.3504C151.295 69.1176 152.244 70.0059 153.233 71.0826C154.202 72.1729 155.306 73.3775 156.49 74.6561L156.477 74.6359C156.753 75.0397 156.995 75.5108 157.129 75.9954C157.197 76.2376 157.224 76.4934 157.21 76.7356C157.177 76.9712 157.096 77.2 156.934 77.375C156.625 77.7114 156.107 77.873 155.642 77.8797C155.158 77.8797 154.687 77.7384 154.249 77.5297C153.381 77.1125 152.627 76.4934 152.008 75.8406C150.75 74.5215 149.606 73.3304 148.636 72.3075C147.694 71.3451 146.92 70.5443 146.342 69.9453C146.093 69.6963 145.877 69.4877 145.702 69.3127C145.554 69.1714 145.473 69.1041 145.46 69.1108L145.447 69.1377Z" fill="#263138"/>
<path d="M135.137 72.3815C135.103 72.4084 135.17 72.5834 135.406 72.7718C135.635 72.9535 136.052 73.1285 136.523 73.0477C136.994 72.967 137.33 72.6641 137.479 72.4084C137.633 72.1527 137.64 71.9642 137.593 71.9508C137.546 71.9306 137.458 72.0786 137.283 72.2536C137.108 72.4286 136.819 72.6372 136.462 72.6978C136.106 72.7583 135.762 72.6641 135.54 72.5564C135.312 72.4488 135.184 72.3411 135.143 72.3747L135.137 72.3815Z" fill="#263138"/>
<path d="M134.329 75.4704C134.403 75.531 134.908 75.0263 135.352 74.2725C135.796 73.5188 135.998 72.8324 135.911 72.7987C135.816 72.7583 135.48 73.364 135.049 74.0975C134.618 74.8311 134.248 75.4166 134.329 75.4771V75.4704Z" fill="#263138"/>
<path d="M132.842 87.5032C132.875 87.5234 133.178 87.0052 133.481 86.1034C133.784 85.2017 134.053 83.8894 134.033 82.4223C134.013 80.9552 133.71 79.6563 133.38 78.7613C133.057 77.8662 132.741 77.3615 132.707 77.375C132.593 77.4086 133.663 79.5554 133.683 82.429C133.744 85.3026 132.727 87.4763 132.842 87.5032Z" fill="#263138"/>
<path d="M114.725 134.134C114.793 134.14 114.86 133.42 115.21 132.323C115.378 131.771 115.647 131.146 116.004 130.473C116.374 129.813 116.838 129.12 117.41 128.46C117.989 127.808 118.622 127.256 119.227 126.805C119.847 126.368 120.432 126.018 120.957 125.775C122 125.284 122.707 125.129 122.687 125.062C122.687 125.035 122.505 125.062 122.182 125.129C121.859 125.19 121.401 125.331 120.856 125.546C120.311 125.762 119.685 126.098 119.039 126.536C118.4 126.987 117.747 127.552 117.148 128.225C116.556 128.905 116.085 129.631 115.721 130.318C115.371 131.018 115.116 131.677 114.974 132.249C114.826 132.821 114.745 133.292 114.732 133.615C114.712 133.945 114.705 134.127 114.732 134.127L114.725 134.134Z" fill="#263138"/>
<path d="M191.7 198.948C194.641 198.335 197.299 199.661 197.299 199.661C200.294 198.335 203.989 200.624 203.989 200.624C205.072 200.105 211.6 204.372 211.6 204.372L219.73 208.208L263.157 175.939L250.848 163.132L268.096 145.184L288.312 165.986C290.829 168.583 292.101 172.089 292.344 175.777C292.855 183.685 288.346 191.067 281.28 194.648L230.107 220.894C230.107 220.894 224.683 220.705 218.471 219.083C214.056 217.933 206.512 214.581 206.512 214.581C206.512 214.581 206.533 214.81 205.187 217.421C202.757 222.125 199.197 217.051 199.197 217.051C199.197 217.051 198.47 218.72 197.818 219.352C194.742 222.334 192.609 218.33 192.609 218.33C192.609 218.33 191.687 219.938 188.934 218.74C186.195 217.549 189.331 209.278 189.331 209.278C189.331 209.278 188.409 211.075 186.626 208.8C184.843 206.526 188.746 199.56 191.693 198.948H191.7Z" fill="#FFFAF8" stroke="#263138" stroke-width="0.336488" stroke-miterlimit="10"/>
<path d="M197.844 200.078C197.844 200.078 197.663 199.957 197.279 199.863C196.902 199.762 196.31 199.735 195.63 199.91C194.951 200.085 194.19 200.462 193.457 201.021C193.086 201.303 192.723 201.606 192.373 201.99C192.03 202.373 191.761 202.831 191.525 203.302C190.59 205.186 189.937 206.976 189.54 208.289C189.338 208.948 189.203 209.487 189.116 209.857C189.035 210.234 189.002 210.442 189.022 210.449C189.076 210.462 189.318 209.648 189.769 208.363C190.226 207.077 190.913 205.321 191.835 203.457C192.064 202.999 192.319 202.568 192.629 202.212C192.945 201.862 193.302 201.546 193.652 201.276C194.352 200.725 195.065 200.348 195.698 200.146C196.996 199.742 197.831 200.166 197.844 200.072V200.078Z" fill="#263138"/>
<path d="M192.615 218.33C192.615 218.33 192.77 218.074 192.992 217.583C193.248 217.031 193.564 216.338 193.941 215.523C194.742 213.78 195.913 211.405 197.03 208.686C197.575 207.326 198.073 206.028 198.8 205.011C199.507 203.982 200.442 203.315 201.297 202.925C202.151 202.528 202.939 202.474 203.45 202.542C203.969 202.609 204.238 202.75 204.258 202.717C204.258 202.703 204.197 202.669 204.069 202.602C203.942 202.535 203.74 202.461 203.471 202.407C202.939 202.293 202.104 202.319 201.196 202.696C200.294 203.066 199.285 203.753 198.531 204.816C197.764 205.866 197.245 207.199 196.7 208.551C195.59 211.25 194.453 213.646 193.706 215.422C193.329 216.304 193.039 217.031 192.858 217.535C192.669 218.04 192.582 218.323 192.609 218.336L192.615 218.33Z" fill="#263138"/>
<path d="M212.549 207.946C212.549 207.946 212.313 207.784 211.856 207.562C211.331 207.306 210.685 206.997 209.918 206.627C209.5 206.431 209.063 206.216 208.558 206.001C208.04 205.792 207.441 205.691 206.815 205.745C206.189 205.805 205.543 206.028 204.991 206.445C204.44 206.869 204.029 207.441 203.652 208.04C203.282 208.639 202.993 209.265 202.71 209.85C202.421 210.436 202.125 210.987 201.835 211.512C201.25 212.555 200.698 213.498 200.287 214.312C199.877 215.126 199.594 215.813 199.426 216.297C199.258 216.782 199.19 217.051 199.211 217.064C199.271 217.085 199.635 216.015 200.509 214.433C200.94 213.639 201.512 212.717 202.118 211.674C202.421 211.149 202.724 210.597 203.02 210.005C203.316 209.413 203.598 208.807 203.955 208.228C204.312 207.649 204.716 207.104 205.2 206.727C205.691 206.351 206.284 206.142 206.849 206.075C207.421 206.014 207.979 206.095 208.457 206.277C208.942 206.472 209.399 206.68 209.817 206.855C210.604 207.185 211.264 207.461 211.802 207.69C212.273 207.878 212.542 207.972 212.549 207.952V207.946Z" fill="#263138"/>
<path d="M211.607 204.372C211.607 204.372 211.809 204.527 212.199 204.749C212.589 204.971 213.161 205.281 213.875 205.657C215.295 206.411 217.273 207.427 219.467 208.531C221.661 209.635 223.653 210.617 225.107 211.317C225.833 211.667 226.426 211.943 226.836 212.125C227.247 212.306 227.482 212.401 227.489 212.374C227.502 212.354 227.287 212.219 226.897 211.997C226.506 211.775 225.934 211.465 225.221 211.088C223.801 210.335 221.823 209.318 219.629 208.215C217.435 207.111 215.443 206.129 213.989 205.429C213.262 205.079 212.677 204.803 212.26 204.621C211.849 204.439 211.614 204.345 211.607 204.365V204.372Z" fill="#263138"/>
<path d="M262.585 176.013C262.605 176.127 264.879 175.495 267.713 175.845C270.546 176.161 272.619 177.312 272.659 177.204C272.679 177.17 272.195 176.834 271.327 176.45C270.458 176.067 269.2 175.663 267.753 175.495C266.313 175.326 264.987 175.421 264.058 175.589C263.123 175.757 262.578 175.966 262.585 176.006V176.013Z" fill="#263138"/>
<path d="M166.679 59.4401C177.426 59.2921 188.187 60.4294 198.665 62.8185C201.095 63.3703 203.666 64.0837 205.308 65.9613C207.044 67.9398 207.354 70.7663 207.582 73.3909C207.858 76.5876 208.134 79.7842 208.417 82.9808C208.881 83.7817 209.399 84.5489 209.951 85.2689C212.482 88.5732 215.705 91.3257 218.007 94.7983C220.308 98.2641 221.58 102.874 219.703 106.589C218.572 108.837 216.466 110.418 214.931 112.417C212.327 115.802 211.479 120.163 209.958 124.153C208.437 128.144 205.691 132.209 201.499 133.01C199.5 133.393 197.42 132.969 195.408 133.266C192.4 133.703 189.87 135.675 187.474 137.552C185.078 139.43 182.487 141.348 179.466 141.644C176.437 141.947 172.971 139.894 172.911 136.852C175.132 138.145 178.079 138.057 180.226 136.644C181.989 135.486 183.126 133.602 184.641 132.128C188.356 128.521 194.352 127.377 196.936 122.888C198.982 119.335 198.167 114.893 197.239 110.903C196.431 107.443 195.617 103.688 196.613 100.364C196.539 99.8321 196.492 99.287 196.492 98.7486C196.465 95.2088 197.871 91.4132 196.223 88.2839C194.042 84.1383 187.757 83.6201 185.556 79.4881C184.277 77.0856 184.728 74.0168 183.328 71.6883C182.009 69.4944 179.385 68.4849 176.881 67.9398C174.385 67.3947 171.746 67.1457 169.532 65.8536C167.325 64.5682 165.683 61.7956 166.679 59.4401Z" fill="#263138"/>
<path d="M140.944 70.302C140.944 70.302 141.052 70.5039 141.294 70.8202C141.537 71.1432 141.9 71.5941 142.358 72.1459C143.273 73.2496 144.592 74.7301 146.14 76.2847C146.907 77.0317 147.627 77.8864 148.616 78.196C149.094 78.344 149.606 78.3508 150.036 78.1825C150.474 78.0143 150.77 77.6778 150.952 77.348C151.315 76.6683 151.254 76.029 151.207 75.6387C151.147 75.2349 151.066 75.0263 151.046 75.033C151.019 75.033 151.046 75.2618 151.073 75.6521C151.079 76.0357 151.093 76.6414 150.743 77.2269C150.568 77.5163 150.305 77.7855 149.942 77.9133C149.585 78.0412 149.141 78.0345 148.724 77.8931C147.869 77.6172 147.169 76.8029 146.395 76.0424C144.854 74.4946 143.515 73.0477 142.553 71.9911C141.59 70.9346 140.998 70.275 140.958 70.3087L140.944 70.302Z" fill="#263138"/>
<path d="M135.803 70.3087C135.803 70.3087 135.931 70.5106 136.207 70.8336C136.483 71.1566 136.893 71.6142 137.405 72.1728C137.943 72.7516 138.549 73.4111 139.215 74.1312C139.558 74.5013 139.921 74.8849 140.292 75.282C140.668 75.679 141.066 76.0963 141.557 76.4462C142.041 76.7962 142.607 77.0586 143.199 77.099C143.784 77.1528 144.403 76.9038 144.727 76.4327C144.888 76.2039 144.982 75.928 144.976 75.6521C144.976 75.3762 144.861 75.1339 144.747 74.932C144.498 74.5282 144.242 74.2187 144.02 73.9091C143.569 73.2967 143.199 72.8054 142.943 72.4689C142.681 72.1324 142.526 71.9575 142.506 71.9709C142.486 71.9844 142.6 72.193 142.829 72.5497C143.058 72.9064 143.394 73.4245 143.818 74.0504C144.02 74.3667 144.282 74.7099 144.491 75.0733C144.706 75.4367 144.74 75.8809 144.464 76.2443C144.202 76.6077 143.724 76.8029 143.219 76.7558C142.714 76.7221 142.21 76.4866 141.759 76.1636C141.308 75.8405 140.917 75.4367 140.541 75.0464C140.164 74.6561 139.8 74.2792 139.45 73.9158C138.764 73.2159 138.138 72.5766 137.586 72.0113C137.055 71.4729 136.617 71.0422 136.308 70.7461C135.998 70.45 135.823 70.3019 135.803 70.3154V70.3087Z" fill="#263138"/>
<path d="M394.11 276.333C395.261 273.83 397.691 271.959 400.403 271.488C403.115 271.017 406.036 271.966 407.96 273.937C406.648 276.273 404.293 277.827 401.762 278.695C398.781 279.725 395.544 278.52 394.104 276.333" fill="#3EBFB6"/>
<path d="M389.332 277.437C389.319 277.397 390.052 277.127 391.264 276.831C392.482 276.535 394.171 276.199 396.055 275.889C397.933 275.58 399.649 275.344 400.887 275.203C402.126 275.055 402.899 275.001 402.906 275.048C402.906 275.095 402.152 275.243 400.921 275.452C399.582 275.674 397.933 275.943 396.109 276.239C394.232 276.549 392.536 276.845 391.311 277.074C390.086 277.302 389.339 277.484 389.326 277.437H389.332Z" fill="#6E8EA0"/>
<path d="M153.569 233.727C156.422 236.076 157.99 239.905 157.593 243.586C157.196 247.267 154.854 250.673 151.564 252.362C149.094 246.029 148.145 239.219 153.569 233.734" fill="#3EBFB6"/>
<path d="M162.93 238.586C163.193 243.364 165.985 247.934 170.124 250.336C174.263 252.739 179.613 252.914 183.893 250.774C179.189 243.344 172.809 237.126 162.93 238.586Z" fill="#3EBFB6"/>
<path d="M141.482 215.18C141.482 215.18 141.597 215.288 141.792 215.517C142.007 215.772 142.283 216.109 142.633 216.519C143.353 217.401 144.39 218.673 145.709 220.214C148.333 223.31 152.041 227.522 156.409 231.917C158.596 234.111 160.743 236.136 162.742 237.927C164.754 239.703 166.618 241.244 168.226 242.469C169.855 243.674 171.201 244.616 172.19 245.168C173.166 245.747 173.745 245.982 173.731 246.022C173.731 246.036 173.583 245.975 173.307 245.861C173.031 245.74 172.621 245.578 172.13 245.289C171.113 244.771 169.741 243.855 168.085 242.671C166.443 241.466 164.565 239.939 162.533 238.169C160.521 236.385 158.361 234.36 156.167 232.166C151.792 227.765 148.104 223.518 145.527 220.375C144.235 218.807 143.219 217.515 142.532 216.607C142.209 216.176 141.947 215.833 141.745 215.564C141.57 215.321 141.482 215.193 141.489 215.187L141.482 215.18Z" fill="#6E8EA0"/>
<path d="M153.051 243.304C152.99 243.29 153.219 242.355 153.407 240.827C153.603 239.299 153.71 237.166 153.475 234.831C153.226 232.496 152.681 230.43 152.176 228.976C151.671 227.522 151.261 226.654 151.315 226.627C151.335 226.614 151.456 226.823 151.658 227.213C151.866 227.596 152.122 228.168 152.405 228.895C152.977 230.342 153.569 232.428 153.825 234.797C154.067 237.166 153.912 239.333 153.657 240.867C153.529 241.635 153.394 242.254 153.273 242.671C153.158 243.088 153.078 243.317 153.058 243.31L153.051 243.304Z" fill="#6E8EA0"/>
<path d="M450.041 107.107C448.379 104.906 447.888 101.878 448.763 99.2668C449.638 96.6557 451.852 94.5291 454.503 93.7754C455.937 96.0366 456.186 98.8429 455.755 101.488C455.244 104.604 452.653 106.878 450.048 107.107" fill="#3EBFB6"/>
<path d="M448.749 111.845C448.709 111.838 448.816 111.064 449.14 109.853C449.456 108.641 449.967 106.993 450.586 105.189C451.206 103.385 451.811 101.77 452.269 100.613C452.726 99.4485 453.043 98.7486 453.09 98.7621C453.137 98.7823 452.901 99.5158 452.504 100.7C452.06 101.986 451.522 103.56 450.916 105.31C450.297 107.107 449.752 108.742 449.375 109.927C448.998 111.111 448.803 111.858 448.749 111.845Z" fill="#6E8EA0"/>
<path d="M420.383 157.176C418.997 152.035 420.296 146.24 423.755 142.189C427.214 138.138 432.726 135.931 438.022 136.489C438.957 141.577 437.376 146.799 434.691 151.227C431.521 156.443 425.222 158.65 420.383 157.183" fill="#3EBFB6"/>
<path d="M400.504 177.096C400.504 177.096 400.591 176.962 400.786 176.733C401.008 176.477 401.298 176.154 401.654 175.744C402.428 174.896 403.552 173.684 404.965 172.204C407.785 169.243 411.729 165.198 416.117 160.757C420.504 156.315 424.502 152.324 427.409 149.444C428.849 148.031 430.02 146.88 430.868 146.052C431.259 145.675 431.575 145.372 431.824 145.144C432.046 144.942 432.167 144.834 432.174 144.841C432.181 144.847 432.08 144.969 431.878 145.191C431.649 145.433 431.346 145.749 430.969 146.146C430.141 146.994 428.997 148.172 427.591 149.619C424.697 152.56 420.74 156.571 416.372 161.006C412.005 165.434 408.048 169.445 405.147 172.379C403.741 173.819 402.59 174.99 401.755 175.838C401.379 176.228 401.069 176.538 400.84 176.78C400.625 176.995 400.51 177.103 400.504 177.096Z" fill="#6E8EA0"/>
<g opacity="0.3">
<path d="M420.383 157.176C418.997 152.035 420.296 146.24 423.755 142.189C427.214 138.138 432.726 135.931 438.022 136.489C438.957 141.577 437.376 146.799 434.691 151.227C431.521 156.443 425.222 158.65 420.383 157.183" fill="black"/>
</g>
<path d="M411.191 159.175C408.283 157.681 406.19 154.693 405.78 151.449C405.369 148.206 406.641 144.794 409.084 142.62C411.783 144.296 413.499 147.176 414.401 150.218C415.457 153.811 413.862 157.58 411.191 159.175Z" fill="#3EBFB6"/>
<g opacity="0.3">
<path d="M411.191 159.175C408.283 157.681 406.19 154.693 405.78 151.449C405.369 148.206 406.641 144.794 409.084 142.62C411.783 144.296 413.499 147.176 414.401 150.218C415.457 153.811 413.862 157.58 411.191 159.175Z" fill="black"/>
</g>
<path d="M412.24 164.909C412.24 164.909 412.146 164.693 412.032 164.296C411.917 163.893 411.789 163.307 411.648 162.58C411.365 161.12 411.069 159.094 410.8 156.847C410.531 154.599 410.343 152.56 410.235 151.086C410.12 149.605 410.087 148.69 410.134 148.69C410.181 148.69 410.302 149.592 410.477 151.066C410.659 152.634 410.888 154.619 411.143 156.813C411.413 159.054 411.668 161.08 411.89 162.547C412.106 164.007 412.287 164.902 412.234 164.916L412.24 164.909Z" fill="#6E8EA0"/>
<path d="M285.176 237.18C287.229 232.341 291.818 228.666 296.987 227.724C302.155 226.782 307.748 228.606 311.368 232.408C303.737 238.324 294.833 242.361 285.169 237.18" fill="#3EBFB6"/>
<g opacity="0.3">
<path d="M285.176 237.18C287.229 232.341 291.818 228.666 296.987 227.724C302.155 226.782 307.748 228.606 311.368 232.408C303.737 238.324 294.833 242.361 285.169 237.18" fill="black"/>
</g>
<path d="M280.862 239.542C280.862 239.542 281.064 239.353 281.468 239.071C281.872 238.781 282.471 238.398 283.231 237.954C284.752 237.058 286.959 235.982 289.523 235.134C292.087 234.293 294.503 233.848 296.26 233.66C297.135 233.566 297.848 233.519 298.346 233.512C298.837 233.498 299.113 233.512 299.113 233.532C299.113 233.593 298.03 233.66 296.293 233.909C294.557 234.158 292.182 234.636 289.638 235.47C287.101 236.311 284.9 237.341 283.359 238.176C281.811 239.003 280.903 239.596 280.869 239.548L280.862 239.542Z" fill="#6E8EA0"/>
<path d="M107.773 149.484C111.447 147.768 115.983 148.031 119.436 150.164C122.888 152.297 125.156 156.227 125.27 160.285C117.834 159.74 110.64 157.452 107.78 149.484" fill="#3EBFB6"/>
<g opacity="0.3">
<path d="M107.773 149.484C111.447 147.768 115.983 148.031 119.436 150.164C122.888 152.297 125.156 156.227 125.27 160.285C117.834 159.74 110.64 157.452 107.78 149.484" fill="black"/>
</g>
<path d="M104.078 148.616C104.078 148.616 104.294 148.603 104.671 148.643C105.047 148.677 105.599 148.764 106.266 148.899C107.605 149.168 109.429 149.679 111.34 150.52C113.251 151.362 114.866 152.358 115.963 153.165C116.515 153.569 116.946 153.912 117.228 154.168C117.518 154.424 117.666 154.565 117.652 154.585C117.619 154.632 116.952 154.114 115.822 153.367C114.691 152.62 113.083 151.671 111.198 150.837C109.314 150.009 107.524 149.464 106.212 149.134C104.899 148.804 104.072 148.663 104.078 148.609V148.616Z" fill="#6E8EA0"/>
<path d="M348.92 228.929C348.483 225.329 349.97 221.546 352.743 219.204C355.515 216.862 359.493 216.028 362.972 217.058C360.435 223.229 356.491 228.714 348.92 228.929Z" fill="#3EBFB6"/>
<path d="M347.15 231.829C347.117 231.809 347.393 231.109 347.991 230.039C348.59 228.976 349.533 227.563 350.784 226.17C352.036 224.777 353.335 223.686 354.324 222.973C355.32 222.26 355.986 221.91 356.007 221.943C356.033 221.991 355.414 222.415 354.472 223.168C353.523 223.922 352.272 225.026 351.04 226.399C349.808 227.771 348.846 229.138 348.2 230.16C347.554 231.183 347.197 231.843 347.15 231.823V231.829Z" fill="#6E8EA0"/>
<path d="M401.877 193.975C400.773 190.516 401.52 186.525 403.801 183.705C406.083 180.885 409.831 179.317 413.445 179.674C412.112 186.208 409.273 192.339 401.877 193.975Z" fill="#3EBFB6"/>
<g opacity="0.3">
<path d="M401.877 193.975C400.773 190.516 401.52 186.525 403.801 183.705C406.083 180.885 409.831 179.317 413.445 179.674C412.112 186.208 409.273 192.339 401.877 193.975Z" fill="black"/>
</g>
<path d="M400.685 197.151C400.645 197.138 400.786 196.397 401.177 195.24C401.56 194.082 402.226 192.514 403.189 190.913C404.151 189.311 405.228 187.992 406.069 187.11C406.91 186.222 407.503 185.751 407.529 185.784C407.57 185.825 407.038 186.357 406.251 187.278C405.463 188.194 404.441 189.52 403.485 191.101C402.536 192.682 401.85 194.203 401.405 195.327C400.961 196.451 400.739 197.171 400.685 197.158V197.151Z" fill="#6E8EA0"/>
<path d="M2.688 145.843C3.47538 142.297 6.13363 139.228 9.52542 137.943C12.9172 136.657 16.9483 137.189 19.8825 139.322C15.4409 144.296 9.89556 148.158 2.688 145.843Z" fill="#3EBFB6"/>
<path d="M0.0566648 147.99C0.0566648 147.99 0.521017 147.391 1.44299 146.584C2.35824 145.776 3.72438 144.76 5.35971 143.865C7.00177 142.97 8.58999 142.371 9.76096 142.028C10.9319 141.684 11.6857 141.577 11.6924 141.617C11.7059 141.671 10.979 141.866 9.83499 142.263C8.69093 142.66 7.14309 143.286 5.52122 144.168C3.90608 145.056 2.53994 146.025 1.59105 146.772C0.642153 147.519 0.0835838 148.031 0.0432053 147.99H0.0566648Z" fill="#6E8EA0"/>
<path d="M222.298 50.0201L227.709 40.2687C225.239 36.3386 223.785 31.7018 223.738 26.7218C223.604 12.4008 235.098 0.677621 249.426 0.536296C263.747 0.401701 275.47 11.8961 275.611 26.2238C275.746 40.5447 264.251 52.2679 249.924 52.4092C243.941 52.4698 238.423 50.4912 234.001 47.1331V47.1465L222.305 50.0201H222.298Z" fill="white"/>
<path d="M222.298 50.0202C222.904 49.8654 226.565 48.9367 233.981 47.0591L233.934 47.2004V47.1869L233.517 46.662L234.048 47.0591C235.536 48.1762 237.312 49.2664 239.392 50.1682C241.471 51.0565 243.854 51.7699 246.471 52.0862C247.777 52.2343 249.143 52.3217 250.543 52.241C251.243 52.1939 251.956 52.167 252.67 52.0997C253.383 51.9853 254.103 51.8641 254.837 51.743C257.737 51.1306 260.691 49.9932 263.444 48.2435C266.19 46.5005 268.727 44.1451 270.752 41.2648C272.771 38.3912 274.286 34.9926 274.979 31.3182C275.658 27.6438 275.557 23.7136 274.555 19.9247C273.545 16.1493 271.701 12.4614 268.962 9.44651L267.906 8.30245C267.556 7.91886 267.145 7.60256 266.768 7.25261C266.378 6.92286 266.021 6.54599 265.597 6.24988L264.359 5.34136C263.955 5.02507 263.518 4.76934 263.08 4.51361L261.775 3.73968C261.317 3.52433 260.86 3.30898 260.409 3.09363C259.951 2.88501 259.507 2.64273 259.029 2.49468C255.294 1.05451 251.324 0.522864 247.528 0.832432C243.732 1.13527 240.112 2.25914 237.009 4.03579C233.894 5.79899 231.276 8.14767 229.257 10.7588C227.231 13.37 225.811 16.2503 224.936 19.1172C224.068 21.9908 223.846 24.8442 223.873 27.4822C224.055 32.7987 225.851 37.1596 227.776 40.2351L227.803 40.2755L227.776 40.3159C224.283 46.5005 222.588 49.502 222.291 50.0269C222.574 49.502 224.23 46.4736 227.628 40.2351V40.3226C225.677 37.2404 223.833 32.8526 223.631 27.489C223.597 24.824 223.806 21.9437 224.674 19.0364C225.549 16.1426 226.975 13.2286 229.014 10.5771C231.047 7.92559 233.698 5.54999 236.848 3.75987C239.984 1.94957 243.658 0.812243 247.494 0.502674C251.337 0.186376 255.361 0.718027 259.15 2.17838C259.635 2.32644 260.086 2.57544 260.55 2.78406C261.008 2.99941 261.472 3.22149 261.936 3.44357L263.262 4.23096C263.706 4.49342 264.15 4.74915 264.561 5.07217L265.813 5.99415C266.243 6.29026 266.6 6.67385 266.997 7.01034C267.381 7.36702 267.798 7.68332 268.148 8.07364L269.218 9.23116C271.997 12.2932 273.868 16.0215 274.884 19.8574C275.894 23.7001 275.995 27.6841 275.302 31.4057C274.602 35.134 273.061 38.5729 271.008 41.4734C268.956 44.3874 266.385 46.763 263.599 48.5194C260.813 50.2826 257.818 51.4267 254.884 52.0391C254.143 52.1602 253.417 52.2746 252.696 52.389C251.97 52.4563 251.25 52.4833 250.543 52.5304C249.13 52.6111 247.75 52.5169 246.431 52.3621C243.786 52.0391 241.39 51.3056 239.298 50.397C237.205 49.4751 235.421 48.3647 233.934 47.2273L234.055 47.1062V47.1196L234.149 47.2273L234.021 47.261C226.578 49.0309 222.897 49.9058 222.291 50.0538L222.298 50.0202Z" fill="#263138"/>
<path d="M242.481 22.0311L245.852 21.9975C245.852 21.9975 245.825 19.1643 248.766 19.0835C250.294 19.0431 251.095 20.0391 251.425 20.7996C251.808 21.6879 251.7 22.7041 251.209 23.5319C250.644 24.4808 249.399 25.3489 247.124 24.972L247.198 32.5834L250.536 32.5497L250.496 28.0947C250.496 28.0947 255.166 26.8429 255.112 21.6812C255.065 16.7483 250.63 15.6446 248.733 15.6648C247.286 15.6783 242.353 16.0753 242.474 22.0311H242.481Z" fill="#E56B70"/>
<path d="M250.595 34.1236L247.211 34.1561L247.241 37.3189L250.626 37.2864L250.595 34.1236Z" fill="#E56B70"/>
</g>
<defs>
<clipPath id="clip0_9476_119932">
<rect width="456" height="292" fill="white" transform="translate(0 -0.000488281)"/>
</clipPath>
</defs>
</svg>
